<svg width="334" height="382" viewBox="0 0 334 382" fill="none" xmlns="http://www.w3.org/2000/svg">
<path d="M147.959 381.484C124.521 381.484 104.014 377.985 86.4355 370.986C69.0202 364.15 54.2904 354.059 42.2461 340.713C30.2018 327.367 20.7617 311.009 13.9258 291.641C7.2526 272.109 2.93945 249.73 0.986328 224.502L81.3086 227.432C80.0065 234.105 79.0299 240.697 78.3789 247.207C77.7279 253.555 77.4023 260.146 77.4023 266.982C77.4023 282.933 80.0065 296.768 85.2148 308.486C90.4232 320.042 97.0964 329.564 105.234 337.051C113.535 344.538 122.731 350.072 132.822 353.652C143.076 357.233 153.249 359.023 163.34 359.023C181.895 359.023 197.845 354.385 211.191 345.107C224.701 335.667 235.768 323.053 244.395 307.266C253.184 291.478 259.613 273.167 263.682 252.334C267.751 231.338 269.785 209.365 269.785 186.416C269.785 173.558 268.727 159.398 266.611 143.936C264.658 128.311 261.973 112.604 258.555 96.8164C255.299 80.8659 251.393 65.485 246.836 50.6738C242.441 35.6999 237.803 22.4349 232.92 10.8789L314.463 0.380859C320.973 24.6322 325.775 49.209 328.867 74.1113C331.96 98.8509 333.506 123.672 333.506 148.574C333.506 170.872 332.122 192.113 329.355 212.295C326.751 232.477 322.438 251.195 316.416 268.447C310.557 285.7 302.826 301.325 293.223 315.322C283.62 329.157 271.901 341.038 258.066 350.967C244.395 360.732 228.444 368.219 210.215 373.428C191.986 378.799 171.234 381.484 147.959 381.484Z" fill="url(#paint0_linear_0_1)"/>
<g clip-path="url(#clip0_0_1)">
<path d="M166.155 215.109C165.093 214.382 163.817 213.994 162.51 214C161.202 214.007 159.931 214.407 158.877 215.145C147.299 223.155 112 250.421 112 285.063C112 304.632 124.297 321.484 141.883 329.035C138.875 324.993 137.255 320.157 137.25 315.198C137.143 295.785 159.71 273.654 160.669 273.009C161.202 272.645 161.841 272.449 162.497 272.449C163.152 272.449 163.791 272.645 164.324 273.009C165.284 273.654 187.75 290.933 187.75 315.21C187.75 320.357 186.014 325.112 183.123 329.035C200.703 321.484 213 304.638 213 285.093C213 249.77 177.764 222.974 166.155 215.109Z" fill="url(#paint1_linear_0_1)" stroke="url(#paint2_linear_0_1)" stroke-width="33.3333"/>
</g>
<defs>
<linearGradient id="paint0_linear_0_1" x1="177.5" y1="86" x2="177.5" y2="266" gradientUnits="userSpaceOnUse">
<stop offset="0.389423" stop-color="#225577" stop-opacity="0.5"/>
<stop offset="0.697115" stop-color="#225577" stop-opacity="0.7"/>
<stop offset="1" stop-color="#225577"/>
</linearGradient>
<linearGradient id="paint1_linear_0_1" x1="162.165" y1="214" x2="162.879" y2="329.035" gradientUnits="userSpaceOnUse">
<stop offset="0.0817308" stop-color="#7D2681"/>
<stop offset="0.548077" stop-color="#FF4F18"/>
<stop offset="0.673077" stop-color="#FF9E30"/>
</linearGradient>
<linearGradient id="paint2_linear_0_1" x1="145.997" y1="213.579" x2="211.415" y2="340.834" gradientUnits="userSpaceOnUse">
<stop offset="0.1" stop-color="#FEED00"/>
<stop offset="0.384615" stop-color="#F2861A"/>
<stop offset="0.6" stop-color="#F13232"/>
</linearGradient>
<clipPath id="clip0_0_1">
<rect width="219" height="166" fill="white" transform="translate(31 176)"/>
</clipPath>
</defs>
</svg>
